<svg width="332" height="52" viewBox="0 0 332 52" fill="none" xmlns="http://www.w3.org/2000/svg">
<g filter="url(#filter0_d_1891_10)">
<rect x="220" y="2" width="23" height="27" fill="white"/>
<rect x="143" y="2" width="23" height="28" fill="white"/>
<rect x="299" y="2" width="22" height="28" fill="white"/>
<rect x="258" y="2" width="22" height="27" fill="white"/>
<rect x="184" y="2" width="20" height="28" fill="white"/>
<path d="M158.438 0C160.542 0 162.448 0.3125 164.156 0.9375C165.865 1.5625 167.312 2.41667 168.5 3.5C169.708 4.58333 170.635 5.85417 171.281 7.3125C171.927 8.75 172.25 10.2812 172.25 11.9062V30.9062C172.25 32.5312 171.927 34.0729 171.281 35.5312C170.635 36.9688 169.708 38.2292 168.5 39.3125C167.312 40.3958 165.865 41.25 164.156 41.875C162.448 42.5 160.542 42.8125 158.438 42.8125H148.812C146.708 42.8125 144.802 42.5 143.094 41.875C141.385 41.25 139.927 40.3958 138.719 39.3125C137.531 38.2292 136.615 36.9688 135.969 35.5312C135.323 34.0729 135 32.5312 135 30.9062V11.9062C135 10.2812 135.323 8.75 135.969 7.3125C136.615 5.85417 137.531 4.58333 138.719 3.5C139.927 2.41667 141.385 1.5625 143.094 0.9375C144.802 0.3125 146.708 0 148.812 0H158.438ZM163.469 18.75L162.875 16.4375L160.375 15.3438L162.875 14.4062L163.469 12.0312V7.875L163.031 5.25L161.062 3.25L157.844 2.8125H144.719V28.6562H157.844L161.062 28.2812L163.031 26.3125L163.469 23.6875V18.75ZM159.719 25.0312L157.656 25.3438H148.062V17.0938H157.719L159.844 17.3438L160.156 19.1875V23.3438L159.719 25.0312ZM159.719 13.4375L157.656 13.8125H148.062V6.125H157.656L159.844 6.46875L159.719 8.3125L160.156 11.7812L159.719 13.4375Z" fill="#2070F5"/>
<path d="M197.357 0C199.462 0 201.368 0.3125 203.076 0.9375C204.785 1.5625 206.232 2.41667 207.42 3.5C208.628 4.58333 209.555 5.85417 210.201 7.3125C210.847 8.75 211.17 10.2812 211.17 11.9062V30.9062C211.17 32.5312 210.847 34.0729 210.201 35.5312C209.555 36.9688 208.628 38.2292 207.42 39.3125C206.232 40.3958 204.785 41.25 203.076 41.875C201.368 42.5 199.462 42.8125 197.357 42.8125H187.732C185.628 42.8125 183.722 42.5 182.014 41.875C180.305 41.25 178.847 40.3958 177.639 39.3125C176.451 38.2292 175.535 36.9688 174.889 35.5312C174.243 34.0729 173.92 32.5312 173.92 30.9062V11.9062C173.92 10.2812 174.243 8.75 174.889 7.3125C175.535 5.85417 176.451 4.58333 177.639 3.5C178.847 2.41667 180.305 1.5625 182.014 0.9375C183.722 0.3125 185.628 0 187.732 0H197.357ZM203.795 7.875L203.357 5.25L201.389 3.25L198.17 2.8125H189.795L186.607 3.25L184.607 5.25L184.232 7.875V23.625L184.607 26.3125L186.67 28.2812L189.795 28.6562H198.17L201.389 28.2812L203.357 26.3125L203.795 23.625V7.875ZM200.045 25.0312L197.982 25.3438H189.982L187.951 25.0312L187.482 23.1562V8.1875L187.795 6.46875L189.982 6.125H197.982L200.17 6.46875L200.482 8.3125V23.2812L200.045 25.0312Z" fill="#2070F5"/>
<path d="M240.121 28.625V5.1875L237.996 3.1875L234.871 2.8125H227.746L224.09 3.25L224.871 6.65625L227.809 6.0625H234.777L236.652 6.46875L237.09 8.125V15.4062L234.871 15.0312H227.746L224.621 15.5L222.621 17.4688L222.184 20.0312V23.6875L222.621 26.3125L224.621 28.2812L227.746 28.6562H234.59L237.027 28.2812L240.121 28.625ZM237.09 25.0312L234.652 25.3438H227.934L225.965 25.0312L225.527 23.1562V20.4688L225.777 18.6875L227.934 18.375H234.715L237.09 18.625V25.0312ZM236.277 0C238.382 0 240.288 0.3125 241.996 0.9375C243.705 1.5625 245.152 2.41667 246.34 3.5C247.548 4.58333 248.475 5.85417 249.121 7.3125C249.767 8.75 250.09 10.2812 250.09 11.9062V30.9062C250.09 32.5312 249.767 34.0729 249.121 35.5312C248.475 36.9688 247.548 38.2292 246.34 39.3125C245.152 40.3958 243.705 41.25 241.996 41.875C240.288 42.5 238.382 42.8125 236.277 42.8125H226.652C224.548 42.8125 222.642 42.5 220.934 41.875C219.225 41.25 217.767 40.3958 216.559 39.3125C215.371 38.2292 214.455 36.9688 213.809 35.5312C213.163 34.0729 212.84 32.5312 212.84 30.9062V11.9062C212.84 10.2812 213.163 8.75 213.809 7.3125C214.455 5.85417 215.371 4.58333 216.559 3.5C217.767 2.41667 219.225 1.5625 220.934 0.9375C222.642 0.3125 224.548 0 226.652 0H236.277Z" fill="#2070F5"/>
<path d="M275.198 0C277.302 0 279.208 0.3125 280.916 0.9375C282.625 1.5625 284.073 2.41667 285.26 3.5C286.468 4.58333 287.395 5.85417 288.041 7.3125C288.687 8.75 289.01 10.2812 289.01 11.9062V30.9062C289.01 32.5312 288.687 34.0729 288.041 35.5312C287.395 36.9688 286.468 38.2292 285.26 39.3125C284.073 40.3958 282.625 41.25 280.916 41.875C279.208 42.5 277.302 42.8125 275.198 42.8125H265.573C263.468 42.8125 261.562 42.5 259.854 41.875C258.145 41.25 256.687 40.3958 255.479 39.3125C254.291 38.2292 253.375 36.9688 252.729 35.5312C252.083 34.0729 251.76 32.5312 251.76 30.9062V11.9062C251.76 10.2812 252.083 8.75 252.729 7.3125C253.375 5.85417 254.291 4.58333 255.479 3.5C256.687 2.41667 258.145 1.5625 259.854 0.9375C261.562 0.3125 263.468 0 265.573 0H275.198ZM276.791 20.9375V28.6562H280.104V20.5938L279.01 17.7188L275.448 16.4375L278.885 14.7812L279.854 11.9688V8.5L279.479 5.875L277.416 3.25L274.291 2.8125H262.635V28.6562H265.979V18.25H274.104L276.323 19.25L276.791 20.9375ZM274.104 6.125L276.323 7.09375L276.541 8.90625V12.2188L276.073 13.9375L274.104 14.9062H265.979V6.125H274.104Z" fill="#2070F5"/>
<path d="M314.117 0C316.222 0 318.128 0.3125 319.836 0.9375C321.545 1.5625 322.992 2.41667 324.18 3.5C325.388 4.58333 326.315 5.85417 326.961 7.3125C327.607 8.75 327.93 10.2812 327.93 11.9062V30.9062C327.93 32.5312 327.607 34.0729 326.961 35.5312C326.315 36.9688 325.388 38.2292 324.18 39.3125C322.992 40.3958 321.545 41.25 319.836 41.875C318.128 42.5 316.222 42.8125 314.117 42.8125H304.492C302.388 42.8125 300.482 42.5 298.774 41.875C297.065 41.25 295.607 40.3958 294.399 39.3125C293.211 38.2292 292.295 36.9688 291.649 35.5312C291.003 34.0729 290.68 32.5312 290.68 30.9062V11.9062C290.68 10.2812 291.003 8.75 291.649 7.3125C292.295 5.85417 293.211 4.58333 294.399 3.5C295.607 2.41667 297.065 1.5625 298.774 0.9375C300.482 0.3125 302.388 0 304.492 0H314.117ZM320.617 7.875L320.18 5.25L318.211 3.25L314.992 2.8125H301.055V28.6562H314.992L318.211 28.2812L320.18 26.3125L320.617 23.625V7.875ZM316.867 25.0312L314.805 25.3438H304.305V6.125H314.805L316.992 6.46875L317.305 8.3125V23.2812L316.867 25.0312Z" fill="#2070F5"/>
</g>
<g filter="url(#filter1_d_1891_10)">
<rect x="89" y="2" width="24" height="28" fill="#2070F5"/>
<rect x="11" y="3" width="23" height="28" fill="#2070F5"/>
<rect x="50" y="3" width="22" height="28" fill="#2070F5"/>
<path d="M27.4375 0.9375C29.5417 0.9375 31.4479 1.25 33.1562 1.875C34.8646 2.5 36.3125 3.35417 37.5 4.4375C38.7083 5.52083 39.6354 6.79167 40.2812 8.25C40.9271 9.6875 41.25 11.2188 41.25 12.8438V31.8438C41.25 33.4688 40.9271 35.0104 40.2812 36.4688C39.6354 37.9062 38.7083 39.1667 37.5 40.25C36.3125 41.3333 34.8646 42.1875 33.1562 42.8125C31.4479 43.4375 29.5417 43.75 27.4375 43.75H17.8125C15.7083 43.75 13.8021 43.4375 12.0938 42.8125C10.3854 42.1875 8.92708 41.3333 7.71875 40.25C6.53125 39.1667 5.61458 37.9062 4.96875 36.4688C4.32292 35.0104 4 33.4688 4 31.8438V12.8438C4 11.2188 4.32292 9.6875 4.96875 8.25C5.61458 6.79167 6.53125 5.52083 7.71875 4.4375C8.92708 3.35417 10.3854 2.5 12.0938 1.875C13.8021 1.25 15.7083 0.9375 17.8125 0.9375H27.4375ZM33.9375 8.8125L33.5 6.1875L31.5312 4.1875L28.3125 3.75H14.375V29.5938H28.3125L31.5312 29.2188L33.5 27.25L33.9375 24.5625V8.8125ZM30.1875 25.9688L28.125 26.2812H17.625V7.0625H28.125L30.3125 7.40625L30.625 9.25V24.2188L30.1875 25.9688Z" fill="white"/>
<path d="M66.3575 0.9375C68.4617 0.9375 70.3679 1.25 72.0762 1.875C73.7846 2.5 75.2325 3.35417 76.42 4.4375C77.6283 5.52083 78.5554 6.79167 79.2012 8.25C79.8471 9.6875 80.17 11.2188 80.17 12.8438V31.8438C80.17 33.4688 79.8471 35.0104 79.2012 36.4688C78.5554 37.9062 77.6283 39.1667 76.42 40.25C75.2325 41.3333 73.7846 42.1875 72.0762 42.8125C70.3679 43.4375 68.4617 43.75 66.3575 43.75H56.7325C54.6283 43.75 52.7221 43.4375 51.0137 42.8125C49.3054 42.1875 47.8471 41.3333 46.6387 40.25C45.4512 39.1667 44.5346 37.9062 43.8887 36.4688C43.2429 35.0104 42.92 33.4688 42.92 31.8438V12.8438C42.92 11.2188 43.2429 9.6875 43.8887 8.25C44.5346 6.79167 45.4512 5.52083 46.6387 4.4375C47.8471 3.35417 49.3054 2.5 51.0137 1.875C52.7221 1.25 54.6283 0.9375 56.7325 0.9375H66.3575ZM70.4512 8.75L69.9825 6.125L68.0137 4.125L64.8575 3.75H58.0762L54.9512 4.125L52.9825 6.125L52.5137 8.75V23.5938L52.9825 26.2188L54.9512 28.1875L58.0762 28.5938H65.9512L69.6075 28.125L68.8262 24.75L65.8887 25.25H58.295L56.295 24.9375L55.8575 23.0625V16.625H70.4512V8.75ZM55.8575 13.3438V9.125L56.1075 7.34375L58.295 7H64.67L66.795 7.34375L67.1075 9.1875V13.3438H55.8575Z" fill="white"/>
<path d="M101.621 28.875L103.715 28.2812L105.59 26.4375L111.715 3.4375L108.09 2.8125L102.434 25.1562L101.746 25.4062L100.902 25.2188L95.2775 2.8125L91.6212 3.4375L97.7775 26.4375L99.6212 28.2812L101.621 28.875ZM105.277 0C107.382 0 109.288 0.3125 110.996 0.9375C112.705 1.5625 114.152 2.41667 115.34 3.5C116.548 4.58333 117.475 5.85417 118.121 7.3125C118.767 8.75 119.09 10.2812 119.09 11.9062V30.9062C119.09 32.5312 118.767 34.0729 118.121 35.5312C117.475 36.9688 116.548 38.2292 115.34 39.3125C114.152 40.3958 112.705 41.25 110.996 41.875C109.288 42.5 107.382 42.8125 105.277 42.8125H95.6525C93.5483 42.8125 91.6421 42.5 89.9337 41.875C88.2254 41.25 86.7671 40.3958 85.5587 39.3125C84.3712 38.2292 83.4546 36.9688 82.8087 35.5312C82.1629 34.0729 81.84 32.5312 81.84 30.9062V11.9062C81.84 10.2812 82.1629 8.75 82.8087 7.3125C83.4546 5.85417 84.3712 4.58333 85.5587 3.5C86.7671 2.41667 88.2254 1.5625 89.9337 0.9375C91.6421 0.3125 93.5483 0 95.6525 0H105.277Z" fill="white"/>
</g>
<defs>
<filter id="filter0_d_1891_10" x="131" y="0" width="200.93" height="50.8125" filterUnits="userSpaceOnUse" color-interpolation-filters="sRGB">
<feFlood flood-opacity="0" result="BackgroundImageFix"/>
<feColorMatrix in="SourceAlpha" type="matrix" values="0 0 0 0 0 0 0 0 0 0 0 0 0 0 0 0 0 0 127 0" result="hardAlpha"/>
<feOffset dy="4"/>
<feGaussianBlur stdDeviation="2"/>
<feComposite in2="hardAlpha" operator="out"/>
<feColorMatrix type="matrix" values="0 0 0 0 0 0 0 0 0 0 0 0 0 0 0 0 0 0 0.15 0"/>
<feBlend mode="normal" in2="BackgroundImageFix" result="effect1_dropShadow_1891_10"/>
<feBlend mode="normal" in="SourceGraphic" in2="effect1_dropShadow_1891_10" result="shape"/>
</filter>
<filter id="filter1_d_1891_10" x="0" y="0" width="123.09" height="51.75" filterUnits="userSpaceOnUse" color-interpolation-filters="sRGB">
<feFlood flood-opacity="0" result="BackgroundImageFix"/>
<feColorMatrix in="SourceAlpha" type="matrix" values="0 0 0 0 0 0 0 0 0 0 0 0 0 0 0 0 0 0 127 0" result="hardAlpha"/>
<feOffset dy="4"/>
<feGaussianBlur stdDeviation="2"/>
<feComposite in2="hardAlpha" operator="out"/>
<feColorMatrix type="matrix" values="0 0 0 0 0 0 0 0 0 0 0 0 0 0 0 0 0 0 0.15 0"/>
<feBlend mode="normal" in2="BackgroundImageFix" result="effect1_dropShadow_1891_10"/>
<feBlend mode="normal" in="SourceGraphic" in2="effect1_dropShadow_1891_10" result="shape"/>
</filter>
</defs>
</svg>
