<svg width="100" height="26" viewBox="0 0 100 26" fill="none" xmlns="http://www.w3.org/2000/svg">
<path d="M13.8756 0H16.254C16.3129 0.000380004 16.3692 0.0240445 16.4107 0.065828C16.4523 0.107612 16.4756 0.164121 16.4756 0.223022V24.1942C16.4756 24.2531 16.4523 24.3097 16.4107 24.3514C16.3692 24.3932 16.3129 24.4169 16.254 24.4173H13.8756C13.8167 24.4169 13.7603 24.3932 13.7188 24.3514C13.6773 24.3097 13.654 24.2531 13.654 24.1942V0.244604C13.6496 0.184127 13.6695 0.124394 13.7091 0.0785293C13.7488 0.0326645 13.805 0.00441946 13.8655 0L13.8756 0ZM30.1943 19.7381V20.3381C30.1844 20.7087 30.133 21.0769 30.041 21.436C29.9305 21.9402 29.6842 22.4047 29.3288 22.7791C28.9525 23.2273 28.3979 23.6079 27.6202 23.9432C26.8432 24.2777 25.8216 24.4353 24.4892 24.4353C23.1569 24.4353 22.1108 24.2799 21.3583 23.9432C20.7124 23.6812 20.1298 23.2844 19.6497 22.7791C19.2981 22.3939 19.0533 21.9234 18.9396 21.4144C18.8575 21.0614 18.8055 20.7021 18.7842 20.3403V6.69209C18.7839 6.66274 18.7894 6.63362 18.8004 6.60641C18.8114 6.57919 18.8277 6.55442 18.8482 6.5335C18.8688 6.51258 18.8933 6.49593 18.9204 6.4845C18.9474 6.47307 18.9764 6.46709 19.0058 6.46691H21.3842C21.4135 6.46709 21.4426 6.47307 21.4696 6.4845C21.4966 6.49593 21.5211 6.51258 21.5417 6.5335C21.5623 6.55442 21.5786 6.57919 21.5896 6.60641C21.6006 6.63362 21.6061 6.66274 21.6058 6.69209V19.4691C21.602 19.7948 21.6471 20.1193 21.7396 20.4317C21.8079 20.6856 21.9288 20.9209 22.0943 21.1252C22.3158 21.374 22.5992 21.5597 22.9158 21.6633C23.3843 21.8339 23.8819 21.9097 24.3799 21.8863C24.8993 21.8978 25.417 21.8224 25.9115 21.6633C26.2274 21.5554 26.5151 21.3791 26.7547 21.1468C26.9446 20.9633 27.082 20.7317 27.154 20.4777C27.2665 20.1462 27.3191 19.7974 27.3094 19.4475V6.69209C27.3091 6.66274 27.3146 6.63362 27.3256 6.60641C27.3366 6.57919 27.3528 6.55442 27.3734 6.5335C27.394 6.51258 27.4185 6.49593 27.4456 6.4845C27.4726 6.47307 27.5016 6.46709 27.531 6.46691H29.9094C29.9387 6.46709 29.9677 6.47307 29.9948 6.4845C30.0218 6.49593 30.0463 6.51258 30.0669 6.5335C30.0875 6.55442 30.1037 6.57919 30.1147 6.60641C30.1257 6.63362 30.1312 6.66274 30.131 6.69209L30.1964 19.7381H30.1943ZM38.2756 6.46619H39.8748C39.9075 6.46579 39.9398 6.47315 39.9691 6.48768C39.9984 6.50221 40.0238 6.52349 40.0433 6.54976C40.0627 6.57603 40.0757 6.60654 40.081 6.63879C40.0864 6.67104 40.084 6.7041 40.0741 6.73525L39.5453 8.81079C39.5346 8.85599 39.5088 8.8962 39.4722 8.92482C39.4356 8.95345 39.3904 8.96879 39.3439 8.96834H38.236C37.7427 8.95182 37.2512 9.03577 36.7914 9.21511C36.4712 9.33395 36.1827 9.52499 35.9482 9.77338C35.7704 9.9692 35.6399 10.2033 35.5669 10.4576C35.507 10.6762 35.477 10.902 35.4777 11.1288V24.1777C35.4777 24.2366 35.4544 24.2931 35.4129 24.3349C35.3714 24.3767 35.315 24.4003 35.2561 24.4007H32.859C32.7999 24.4007 32.7431 24.3772 32.7013 24.3354C32.6595 24.2936 32.636 24.2368 32.636 24.1777V10.5612C32.6479 10.1985 32.7 9.83824 32.7914 9.48705C32.9036 8.97626 33.1511 8.50432 33.5065 8.12158C33.8856 7.67554 34.4403 7.29424 35.2173 6.95755C35.9007 6.64532 36.9655 6.46547 38.2763 6.46547L38.2756 6.46619ZM5.63959 6.46619C7.57197 6.46619 8.99211 6.84748 9.9252 7.60863C10.3505 7.95964 10.6926 8.4007 10.9267 8.89996C11.1609 9.39923 11.2812 9.94425 11.2792 10.4957V20.3201C11.2628 20.7683 11.1879 21.2124 11.0561 21.641C10.8956 22.1417 10.6139 22.5949 10.236 22.9604C9.73315 23.4114 9.14336 23.7546 8.5029 23.9691C7.77125 24.2353 6.81585 24.3719 5.66117 24.3719C4.69843 24.3914 3.73886 24.2553 2.81945 23.9691C2.176 23.7632 1.58544 23.4189 1.08923 22.9604C0.688533 22.6136 0.40213 22.1536 0.267649 21.641C0.125414 21.2149 0.0501783 20.7693 0.0446273 20.3201V18.754C0.0422873 17.9407 0.265146 17.1426 0.688512 16.4482C1.11086 15.7654 1.75769 15.2508 2.51801 14.9928C2.91657 14.8345 3.33959 14.723 3.87197 14.5223C4.36045 14.3396 4.87053 14.1878 5.33599 14.0079C5.80074 13.8281 6.20146 13.695 6.57988 13.5597C6.9583 13.4245 7.15614 13.3583 7.24607 13.3151C7.33599 13.2712 7.44535 13.2029 7.57916 13.1317C7.73024 13.0331 7.87053 12.9216 8.00002 12.7971C8.13671 12.646 8.24606 12.4734 8.32592 12.2863C8.43743 12.0647 8.49139 11.8187 8.48132 11.5712V10.9417C8.48055 10.702 8.42752 10.4653 8.32592 10.2482C8.22788 9.99618 8.06718 9.77333 7.85901 9.60072C7.60424 9.38292 7.3106 9.21523 6.99355 9.10647C6.54939 8.96492 6.08374 8.90281 5.61801 8.92302C4.50722 8.92302 3.79715 9.14604 3.37412 9.61655C3.02939 10.0298 2.82728 10.5432 2.79786 11.0806C2.79694 11.1075 2.79071 11.134 2.77954 11.1585C2.76837 11.183 2.75247 11.2051 2.73276 11.2235C2.71305 11.2419 2.68991 11.2562 2.66466 11.2656C2.63942 11.275 2.61256 11.2794 2.58563 11.2784H0.221606C0.162706 11.278 0.106349 11.2544 0.064835 11.2126C0.023321 11.1708 2.17507e-05 11.1143 2.29766e-05 11.0554V10.4734C-0.00179358 9.93505 0.104122 9.40181 0.311534 8.90504C0.535428 8.39255 0.88689 7.94598 1.3324 7.60791C1.8521 7.20646 2.44929 6.91694 3.08635 6.75755C3.92392 6.56707 4.77992 6.46936 5.63887 6.46619H5.63959ZM8.48132 15.3065C8.46473 15.4077 8.42635 15.5042 8.36884 15.5891C8.31133 15.6741 8.23606 15.7455 8.14822 15.7986C7.99714 15.9036 7.83312 15.9863 7.65902 16.0453C7.32664 16.1791 6.94966 16.2906 6.57268 16.4266C6.19571 16.5619 5.81729 16.6957 5.4842 16.8072C5.08492 16.9626 4.6842 17.0763 4.3734 17.2101C4.10006 17.3412 3.84008 17.4985 3.59715 17.6799C3.37988 17.8777 3.19858 18.1115 3.06333 18.3734C2.89477 18.6973 2.81088 19.0587 2.81945 19.4237C2.81945 20.2511 3.02017 20.877 3.42017 21.3029C3.81873 21.7058 4.55038 21.9302 5.63959 21.9302C6.72808 21.9302 7.48132 21.7058 7.90506 21.2806C8.32736 20.8561 8.5029 20.2288 8.5029 19.4511L8.48132 15.3101V15.3065ZM46.8015 6.46619C48.7338 6.46619 50.154 6.84748 51.0864 7.60863C51.5117 7.95964 51.8537 8.4007 52.0879 8.89996C52.322 9.39923 52.4424 9.94425 52.4403 10.4957V20.3201C52.4247 20.7682 52.3502 21.2123 52.2187 21.641C52.0568 22.1414 51.7747 22.5944 51.3971 22.9604C50.8947 23.4108 50.3058 23.754 49.6662 23.9691C48.9346 24.2353 47.9777 24.3719 46.823 24.3719C45.8603 24.3912 44.9008 24.2552 43.9813 23.9691C43.3376 23.7633 42.7468 23.419 42.2504 22.9604C41.8503 22.613 41.5641 22.1533 41.4288 21.641C41.287 21.2148 41.2123 20.7692 41.2072 20.3201V18.754C41.2042 17.9406 41.4271 17.1424 41.8511 16.4482C42.2707 15.7674 42.9135 15.2533 43.6698 14.9935C44.0705 14.8353 44.4914 14.7237 45.0259 14.523C45.5144 14.3403 46.0252 14.1885 46.4899 14.0086C46.9547 13.8288 47.3569 13.6957 47.7346 13.5604C48.1108 13.4252 48.3101 13.359 48.4 13.3158C48.4899 13.2719 48.6 13.2036 48.7331 13.1324C48.8842 13.0353 49.0252 12.923 49.154 12.7978C49.2921 12.6468 49.4058 12.4748 49.4871 12.2871C49.5986 12.0655 49.6525 11.8194 49.6425 11.5719V10.9424C49.6417 10.7027 49.5887 10.4661 49.4871 10.2489C49.3892 9.99739 49.2293 9.77467 49.0223 9.60144C48.7668 9.38358 48.4724 9.2159 48.1547 9.10719C47.7105 8.96564 47.2449 8.90353 46.7792 8.92374C45.6684 8.92374 44.959 9.14676 44.5374 9.61727C44.1922 10.0303 43.9896 10.5438 43.9597 11.0813C43.9593 11.1094 43.9532 11.1371 43.9416 11.1627C43.9301 11.1882 43.9134 11.2112 43.8926 11.2301C43.8719 11.249 43.8474 11.2634 43.8209 11.2724C43.7943 11.2815 43.7661 11.285 43.7382 11.2827H41.3166C41.2577 11.2824 41.2013 11.2587 41.1598 11.2169C41.1183 11.1751 41.095 11.1186 41.095 11.0597V10.4741C41.0929 9.93582 41.1986 9.40256 41.4058 8.90576C41.6233 8.38927 41.9762 7.94112 42.4274 7.60863C42.9472 7.20684 43.5447 6.91706 44.182 6.75755C45.0427 6.57129 45.9209 6.47366 46.8015 6.46619ZM49.6209 15.3065C49.6042 15.4077 49.5659 15.5041 49.5083 15.5891C49.4508 15.674 49.3756 15.7455 49.2878 15.7986C49.1367 15.9036 48.9727 15.9863 48.7986 16.0453C48.4662 16.1791 48.0892 16.2906 47.7122 16.4266C47.3353 16.5619 46.9569 16.6957 46.6238 16.8072C46.2245 16.9626 45.8238 17.0763 45.5144 17.2101C45.241 17.341 44.9806 17.4978 44.7374 17.6799C44.5204 17.8777 44.3401 18.1125 44.2051 18.3734C44.0326 18.6963 43.9476 19.0586 43.9583 19.4245C43.9583 20.2518 44.159 20.8777 44.559 21.3036C44.9576 21.7065 45.6914 21.9317 46.7784 21.9317C47.8648 21.9317 48.6209 21.7065 49.0439 21.282C49.4662 20.8576 49.6417 20.2295 49.6417 19.4525L49.6202 15.3115V15.3058L49.6209 15.3065ZM60.5266 5.32302H59.764V25.1799H60.5266V5.32302ZM66.8533 8.1295C66.8533 8.04748 66.9194 7.97266 67.0101 7.97266H68.9504C69.9655 7.97266 70.7993 8.79856 70.7993 9.79712C70.7993 10.8209 69.9655 11.6547 68.959 11.6547H67.9266V13.595C67.9252 13.6361 67.9082 13.6752 67.8791 13.7043C67.85 13.7334 67.8109 13.7504 67.7698 13.7518H67.0101C66.9895 13.7518 66.9691 13.7477 66.9501 13.7399C66.931 13.732 66.9138 13.7204 66.8992 13.7059C66.8846 13.6913 66.8731 13.674 66.8652 13.655C66.8573 13.636 66.8533 13.6156 66.8533 13.595V8.1295ZM68.8842 10.6475C69.3461 10.6475 69.7346 10.2763 69.7346 9.78921C69.7346 9.33525 69.3461 8.98849 68.8842 8.98849H67.9266V10.6482L68.8842 10.6475ZM72.7878 11.6633C73.118 11.6633 73.3907 11.754 73.3907 11.754C73.3986 11.3331 73.2662 11.1849 72.9612 11.1849C72.6492 11.1895 72.3389 11.231 72.0367 11.3086C71.9216 11.3417 71.8633 11.2676 71.8468 11.1597L71.7727 10.7302C71.7475 10.6065 71.8137 10.5489 71.8878 10.5237C72.2539 10.4236 72.6313 10.3709 73.0108 10.3669C74.0425 10.3669 74.282 10.9036 74.282 11.8036V13.595C74.2806 13.6361 74.2636 13.6752 74.2345 13.7043C74.2054 13.7334 74.1663 13.7504 74.1252 13.7518H73.8281C73.7705 13.7518 73.7288 13.7266 73.6878 13.6367L73.5885 13.4137C73.3986 13.5863 73.0928 13.8345 72.5813 13.8345C71.9209 13.8345 71.4662 13.405 71.4662 12.7036C71.4669 12.1173 71.9461 11.6633 72.7878 11.6633ZM72.8043 13.1324C73.0684 13.1324 73.3245 12.9094 73.3734 12.8108V12.3568C73.3734 12.3568 73.1504 12.2576 72.9115 12.2576C72.5892 12.2576 72.3748 12.4396 72.3748 12.7036C72.3725 12.7606 72.382 12.8175 72.4028 12.8706C72.4235 12.9237 72.4551 12.972 72.4955 13.0123C72.5358 13.0526 72.5841 13.084 72.6373 13.1047C72.6905 13.1254 72.7473 13.1348 72.8043 13.1324ZM75.5604 10.6065C75.5604 10.5151 75.6346 10.4496 75.7173 10.4496H76.0317C76.1058 10.4496 76.1554 10.4906 76.1799 10.5568L76.2957 10.8784C76.4115 10.7129 76.7166 10.3669 77.2288 10.3669C77.6166 10.3669 77.9633 10.4906 77.8641 10.6971L77.559 11.2331C77.518 11.3072 77.4353 11.341 77.3691 11.3072C77.3439 11.3 77.2202 11.2583 77.1295 11.2583C77.0106 11.2574 76.8937 11.2883 76.7907 11.3477C76.6878 11.4072 76.6026 11.493 76.5439 11.5964V13.5942C76.5439 13.7094 76.4691 13.7511 76.354 13.7511H75.718C75.6768 13.7498 75.6376 13.7329 75.6085 13.7037C75.5794 13.6746 75.5624 13.6354 75.5612 13.5942L75.5604 10.6065ZM79.7863 11.6633C80.1166 11.6633 80.3885 11.754 80.3885 11.754C80.3964 11.3331 80.2648 11.1849 79.959 11.1849C79.654 11.1849 79.2245 11.2504 79.0346 11.3086C78.9194 11.3417 78.8612 11.2676 78.8446 11.1597L78.7705 10.7302C78.7461 10.6065 78.8123 10.5489 78.8864 10.5237C79.2522 10.4236 79.6294 10.3709 80.0087 10.3669C81.041 10.3669 81.2799 10.9036 81.2799 11.8036V13.595C81.2784 13.6361 81.2615 13.6752 81.2324 13.7043C81.2032 13.7334 81.1642 13.7504 81.123 13.7518H80.8259C80.7684 13.7518 80.7266 13.7266 80.6856 13.6367L80.5863 13.4137C80.3964 13.5863 80.0914 13.8345 79.5792 13.8345C78.9194 13.8345 78.4648 13.405 78.4648 12.7036C78.4655 12.1173 78.9439 11.6633 79.7863 11.6633ZM79.8022 13.1324C80.0662 13.1324 80.3223 12.9094 80.372 12.8108V12.3568C80.372 12.3568 80.1489 12.2576 79.9094 12.2576C79.5878 12.2576 79.3734 12.4396 79.3734 12.7036C79.3734 12.9511 79.5468 13.1324 79.8022 13.1324ZM66.8533 16.7432C66.8533 16.6604 66.9194 16.5856 67.0101 16.5856H70.3698C70.4612 16.5856 70.5274 16.6604 70.5274 16.7432V17.4194C70.5274 17.4401 70.5235 17.4606 70.5156 17.4797C70.5078 17.4988 70.4962 17.5161 70.4817 17.5308C70.4671 17.5454 70.4498 17.557 70.4307 17.565C70.4116 17.5729 70.3912 17.577 70.3705 17.577H67.9266V18.9302H69.9655C70.0482 18.9302 70.1223 19.005 70.1223 19.0878V19.7727C70.1223 19.8143 70.1058 19.8541 70.0764 19.8836C70.047 19.913 70.0071 19.9295 69.9655 19.9295H67.9266V21.3741H70.3705C70.4612 21.3741 70.5274 21.4489 70.5274 21.5309V22.2079C70.5274 22.2286 70.5235 22.249 70.5156 22.2682C70.5078 22.2873 70.4962 22.3046 70.4817 22.3193C70.4671 22.3339 70.4498 22.3455 70.4307 22.3535C70.4116 22.3614 70.3912 22.3655 70.3705 22.3655H67.0108C66.9901 22.3656 66.9696 22.3616 66.9504 22.3537C66.9312 22.3458 66.9138 22.3342 66.8992 22.3195C66.8845 22.3049 66.8729 22.2875 66.8651 22.2683C66.8572 22.2492 66.8532 22.2286 66.8533 22.2079V16.7432ZM71.6317 19.2194C71.6317 19.1281 71.7058 19.0626 71.7885 19.0626H72.0943C72.1684 19.0626 72.218 19.1036 72.2346 19.1532L72.3497 19.4669C72.4904 19.3136 72.6613 19.1911 72.8518 19.1073C73.0423 19.0234 73.248 18.9801 73.4561 18.9799C73.9266 18.9799 74.2569 19.1611 74.5295 19.4914C74.6698 19.3432 75.0986 18.9799 75.6935 18.9799C76.7497 18.9799 77.1381 19.764 77.1381 20.6309V22.2072C77.1382 22.2278 77.1343 22.2483 77.1264 22.2674C77.1186 22.2865 77.107 22.3039 77.0925 22.3186C77.0779 22.3332 77.0606 22.3448 77.0415 22.3527C77.0224 22.3607 77.002 22.3647 76.9813 22.3647H76.3122C76.2916 22.3647 76.2711 22.3607 76.2521 22.3527C76.233 22.3448 76.2157 22.3332 76.2011 22.3186C76.1865 22.3039 76.175 22.2865 76.1671 22.2674C76.1593 22.2483 76.1553 22.2278 76.1554 22.2072V20.5734C76.1554 20.1439 75.9489 19.8712 75.536 19.8712C75.0576 19.8712 74.8425 20.218 74.8425 20.218C74.8425 20.218 74.8511 20.3835 74.8511 20.5317V22.2079C74.8495 22.2491 74.8323 22.2882 74.8031 22.3173C74.7739 22.3464 74.7348 22.3633 74.6935 22.3647H74.0748C74.0332 22.3647 73.9934 22.3482 73.9639 22.3188C73.9345 22.2894 73.918 22.2495 73.918 22.2079V20.5734C73.918 20.1439 73.7281 19.8712 73.3065 19.8712C72.8943 19.8712 72.6957 20.1683 72.613 20.3914V22.2072C72.6117 22.2485 72.5948 22.2877 72.5657 22.317C72.5366 22.3462 72.4974 22.3633 72.4561 22.3647H71.7871C71.7458 22.3633 71.7066 22.3462 71.6775 22.317C71.6484 22.2877 71.6315 22.2485 71.6302 22.2072V19.2194H71.6317ZM79.4065 24.6835C79.4065 24.7835 79.3576 24.841 79.2086 24.841H78.5482C78.507 24.8397 78.4679 24.8228 78.4387 24.7937C78.4096 24.7645 78.3926 24.7254 78.3914 24.6842V19.2194C78.3914 19.1281 78.4655 19.0626 78.5482 19.0626H78.8705C78.9281 19.0626 78.9856 19.0957 79.0101 19.1611L79.118 19.4338C79.2417 19.2683 79.6461 18.9799 80.1828 18.9799C81.0907 18.9799 81.7763 19.764 81.7763 20.7137C81.7763 21.6871 81.0331 22.4468 80.1417 22.4468C79.8194 22.4468 79.5223 22.3317 79.4065 22.2647V24.6835ZM80.0094 21.5554C80.4712 21.5554 80.8101 21.1755 80.8101 20.7137C80.8101 20.2511 80.4964 19.8719 80.0425 19.8719C79.6209 19.8719 79.4151 20.2014 79.3655 20.3755V21.3655C79.3655 21.3655 79.5964 21.5554 80.0094 21.5554ZM82.8482 19.2194C82.8482 19.1281 82.9223 19.0626 83.0051 19.0626H83.3187C83.3928 19.0626 83.4425 19.1036 83.4676 19.1698L83.5835 19.4914C83.6986 19.3259 84.0043 18.9799 84.5158 18.9799C84.9036 18.9799 85.2504 19.1036 85.1518 19.3101L84.8461 19.846C84.8051 19.9209 84.7223 19.954 84.6561 19.9209C84.5792 19.8932 84.4988 19.8763 84.4173 19.8705C84.2982 19.8697 84.1811 19.9007 84.0781 19.9603C83.975 20.0198 83.8897 20.1058 83.831 20.2094V22.2072C83.831 22.3223 83.7569 22.364 83.641 22.364H83.0051C82.9639 22.3626 82.9249 22.3456 82.8957 22.3165C82.8666 22.2874 82.8497 22.2483 82.8482 22.2072V19.2194ZM87.4043 18.9799C88.2547 18.9799 88.9482 19.6237 88.9482 20.5151C88.9482 20.5727 88.9403 20.6806 88.9317 20.7381C88.927 20.7765 88.9085 20.8119 88.8796 20.8378C88.8508 20.8636 88.8135 20.878 88.7748 20.8784H86.6619C86.6863 21.2165 86.9756 21.5964 87.4547 21.5964C87.7101 21.5964 87.9497 21.4978 88.0986 21.3899C88.1806 21.341 88.2554 21.3245 88.313 21.3899L88.6511 21.7784C88.7094 21.836 88.7252 21.9273 88.6432 21.9928C88.3705 22.2489 87.9497 22.4468 87.413 22.4468C86.4223 22.4468 85.7209 21.6626 85.7209 20.7129C85.7209 19.7806 86.4223 18.9799 87.4043 18.9799ZM87.9827 20.3007C87.969 20.1494 87.8998 20.0084 87.7886 19.9049C87.6773 19.8013 87.5318 19.7425 87.3799 19.7396C87.2229 19.7398 87.0714 19.7967 86.9531 19.8998C86.8348 20.0029 86.7577 20.1453 86.736 20.3007H87.9827ZM89.7892 21.9683L90.0122 21.5223C90.0453 21.4396 90.1281 21.4237 90.2022 21.4647C90.2022 21.4647 90.5734 21.6626 90.9533 21.6626C91.118 21.6626 91.2338 21.5971 91.2338 21.4568C91.2338 21.3079 91.1187 21.2173 90.6806 21.0439C90.0453 20.7957 89.7482 20.4576 89.7482 19.954C89.7482 19.4504 90.1194 18.9799 90.9612 18.9799C91.4482 18.9799 91.8036 19.1201 91.977 19.236C92.0511 19.2856 92.0921 19.3763 92.0511 19.459L91.8446 19.8799C91.8036 19.954 91.7122 19.9619 91.6468 19.9374C91.6468 19.9374 91.2748 19.7647 90.9612 19.7647C90.7633 19.7647 90.6806 19.8468 90.6806 19.954C90.6806 20.1029 90.8295 20.1525 91.1346 20.2763C91.7705 20.5237 92.2497 20.7957 92.2497 21.4396C92.2497 21.9849 91.7705 22.4468 90.9367 22.4468C90.3921 22.4468 90.0122 22.2741 89.8389 22.1417C89.7892 22.1 89.7554 22.0338 89.7892 21.9683ZM94.3864 20.2763C94.7166 20.2763 94.9885 20.3669 94.9885 20.3669C94.9971 19.946 94.8648 19.7978 94.5597 19.7978C94.2478 19.8024 93.9375 19.844 93.6353 19.9216C93.5194 19.9547 93.4619 19.8799 93.4453 19.7727L93.3712 19.3432C93.3461 19.2194 93.4123 19.1619 93.4864 19.1367C93.8525 19.0366 94.2299 18.9839 94.6094 18.9799C95.641 18.9799 95.8806 19.5165 95.8806 20.4165V22.2079C95.8792 22.2491 95.8622 22.2881 95.8331 22.3172C95.804 22.3463 95.7649 22.3633 95.7238 22.3647H95.4259C95.3684 22.3647 95.3274 22.3396 95.2863 22.2489L95.1871 22.0259C94.9971 22.1993 94.6914 22.4468 94.1799 22.4468C93.5194 22.4468 93.0655 22.018 93.0655 21.3158C93.0655 20.7302 93.5446 20.2763 94.3864 20.2763ZM94.4029 21.7453C94.6669 21.7453 94.923 21.5223 94.972 21.4237V20.9698C94.972 20.9698 94.7489 20.8705 94.5101 20.8705C94.1878 20.8705 93.9734 21.0518 93.9734 21.3165C93.9734 21.564 94.1468 21.7453 94.4029 21.7453ZM96.977 21.9683L97.2 21.5223C97.2331 21.4396 97.3158 21.4237 97.3899 21.4647C97.3899 21.4647 97.7619 21.6626 98.1417 21.6626C98.3065 21.6626 98.4223 21.5971 98.4223 21.4568C98.4223 21.3079 98.3065 21.2173 97.8691 21.0439C97.2331 20.7957 96.936 20.4576 96.936 19.954C96.936 19.4504 97.3072 18.9799 98.1497 18.9799C98.6367 18.9799 98.9914 19.1201 99.1648 19.236C99.2389 19.2856 99.2806 19.3763 99.2389 19.459L99.0331 19.8799C98.9914 19.954 98.9007 19.9619 98.8346 19.9374C98.8346 19.9374 98.4633 19.7647 98.1497 19.7647C97.9518 19.7647 97.8691 19.8468 97.8691 19.954C97.8691 20.1029 98.018 20.1525 98.323 20.2763C98.959 20.5237 99.4374 20.7957 99.4374 21.4396C99.4374 21.9849 98.959 22.4468 98.1252 22.4468C97.5799 22.4468 97.2 22.2741 97.0274 22.1417C96.977 22.1 96.9446 22.0338 96.977 21.9683Z" fill="#2070F5"/>
</svg>
